<svg xmlns="http://www.w3.org/2000/svg" viewbox="0 0 820 140"><style>.dividers{stroke:#6a9400;stroke-dasharray:1,1}.label,.tag{dominant-baseline:central}.tag{font-family:monospace;font-weight:700;font-size:13px}.label{font-family:sans-serif;font-size:10px}.parser{stroke:#6eae00;fill:#6eae00}.fetch{stroke:#0035ff;fill:#0035ff}.execution{stroke:red;fill:red}.progress{stroke-width:2}.progress.parser:not(.first){marker-start:url(#parser-marker)}.progress.parser:not(.last){marker-end:url(#parser-marker)}.progress.fetch:not(.first){marker-start:url(#fetch-marker)}.progress.fetch:not(.last){marker-end:url(#fetch-marker)}.progress.execution:not(.first){marker-start:url(#execution-marker)}.progress.execution:not(.last){marker-end:url(#execution-marker)}.connector{stroke:#cecece;stroke-width:1}</style><g display="inline"><title>Layer 1</title><g id="svg_4" class="dividers"><line id="svg_5" x1="0" x2="820" y1="33.5" y2="33.5"/><line id="svg_6" x1="0" x2="820" y1="66.5" y2="66.5"/><line id="svg_7" x1="0" x2="820" y1="99.5" y2="99.5"/><line id="svg_9" x1="245.5" x2="245.5" y1="1" y2="29"/><line id="svg_10" x1="245.5" x2="245.5" y1="38" y2="62"/><line id="svg_11" x1="245.5" x2="245.5" y1="68" y2="95"/></g><g id="svg_14"><text id="svg_15" x="12" y="16.75" class="tag">&lt;script&gt;</text><g id="svg_16"><text id="svg_17" x="252" y="9" class="label">Scripting:</text><text id="svg_18" x="252" y="24" class="label">HTML Parser:</text><line id="svg_19" x1="509" x2="509" y1="9" y2="24" class="connector"/><line id="svg_20" x1="656" x2="656" y1="9" y2="24" class="connector"/><line id="svg_21" x1="358" x2="509" y1="24" y2="24" class="parser progress first"/><line id="svg_22" x1="509" x2="606" y1="9" y2="9" class="fetch progress"/><line id="svg_23" x1="606" x2="656" y1="9" y2="9" class="execution progress"/><line id="svg_24" x1="656" x2="784" y1="24" y2="24" class="parser progress last"/></g></g><g id="svg_25"><text id="svg_26" x="12" y="49.75" class="tag">&lt;script defer&gt;</text><g id="svg_27"><text id="svg_28" x="252" y="42" class="label">Scripting:</text><text id="svg_29" x="252" y="57" class="label">HTML Parser:</text><line id="svg_30" x1="736" x2="736" y1="42" y2="57" class="connector"/><line id="svg_31" x1="358" x2="736" y1="57" y2="57" class="parser progress first"/><line id="svg_32" x1="509" x2="606" y1="42" y2="42" class="fetch progress"/><line id="svg_33" x1="736" x2="784" y1="42" y2="42" class="execution progress last"/></g></g><g id="svg_34"><text id="svg_35" x="12" y="82.75" class="tag">&lt;script async&gt;</text><g id="svg_36"><text id="svg_37" x="252" y="75" class="label">Scripting:</text><text id="svg_38" x="252" y="90" class="label">HTML Parser:</text><line id="svg_39" x1="606" x2="606" y1="75" y2="90" class="connector"/><line id="svg_40" x1="656" x2="656" y1="75" y2="90" class="connector"/><line id="svg_41" x1="358" x2="606" y1="90" y2="90" class="parser progress first"/><line id="svg_42" x1="509" x2="606" y1="75" y2="75" class="fetch progress"/><line id="svg_43" x1="606" x2="656" y1="75" y2="75" class="execution progress"/><line id="svg_44" x1="656" x2="784" y1="90" y2="90" class="parser progress last"/></g></g><g id="svg_75" class="legend"><circle id="svg_76" cx="360.5" cy="112.85" r="3" class="parser"/><text id="svg_77" x="366.5" y="112.85" class="label">parser</text><circle id="svg_78" cx="407.5" cy="112.85" r="3" class="fetch"/><text id="svg_79" x="413.5" y="112.85" class="label">fetch</text><circle id="svg_80" cx="447.5" cy="112.85" r="3" class="execution"/><text id="svg_81" x="453.5" y="112.85" class="label">execution</text></g><text id="svg_82" x="782" y="112.85" class="label" text-anchor="end">runtime →</text></g></svg>