<svg xmlns="http://www.w3.org/2000/svg" height="200" aria-label="The rotated phone shows a top part of an image of a kettlebell swing; the upright-held tablet shows a bit smaller images in two columns; the laptop shows images in three columns." font-family="sans-serif" font-size="2.5" role="img" viewBox="0 0 115 32"><rect width="12" height="6" x="6" y="24" fill="#fff" stroke="#000" rx="1"/><rect width="10" height="4.5" x="7" y="25" fill="#987b5a"/><image xmlns:xlink="http://www.w3.org/1999/xlink" width="10" height="4.5" x="7" y="25" preserveAspectRatio="xMinYMin slice" xlink:href="kettlebell.jpg"/><text x="12" y="21" text-anchor="middle">Narrow, 1 column</text><rect width="14" height="20" x="32" y="10" fill="#fff" stroke="#000" rx="1"/><line x1="32" x2="46" y1="29" y2="29" stroke="#000" stroke-width="1.1"/><rect width="5.5" height="5.5" x="33" y="11" fill="#987b5a"/><image xmlns:xlink="http://www.w3.org/1999/xlink" width="5.5" height="5.5" x="33" y="11" xlink:href="kettlebell.jpg"/><rect width="5.5" height="5.5" x="39.5" y="11" fill="#deb887"/><rect width="5.5" height="5.5" x="33" y="17.5" fill="silver"/><text x="39" y="7" text-anchor="middle">Medium, 2 columns</text><rect width="40" height="26" x="65" y="2" fill="#fff" stroke="#000" stroke-width="2" rx="2"/><line x1="61" x2="109" y1="30" y2="30" stroke="#000" stroke-linecap="round" stroke-width="2"/><rect width="10" height="10" x="67" y="4" fill="#987b5a"/><image xmlns:xlink="http://www.w3.org/1999/xlink" width="10" height="10" x="67" y="4" xlink:href="kettlebell.jpg"/><rect width="10" height="10" x="80" y="4" fill="#deb887"/><rect width="10" height="10" x="93" y="4" fill="silver"/><text x="85" y="25" text-anchor="middle">Wide, 3 columns</text></svg>